<svg width="17" height="24" fill="none" xmlns="http://www.w3.org/2000/svg"><path fill-rule="evenodd" clip-rule="evenodd" d="M8.96 0a4.115 4.115 0 00-2.922 1.227A4.227 4.227 0 004.824 4.19v2.04H1.46a.541.541 0 00-.538.545v13.953C.921 22.535 2.367 24 4.15 24h9.623C15.554 24 17 22.535 17 20.727V6.774a.55.55 0 00-.158-.385.534.534 0 00-.38-.16h-3.365v-2.04a4.226 4.226 0 00-1.214-2.962A4.115 4.115 0 008.96 0zM5.9 4.189c0-1.714 1.37-3.104 3.06-3.104 1.691 0 3.061 1.39 3.061 3.104v2.04h-6.12v-2.04zm10.024 3.13v13.408a2.2 2.2 0 01-.63 1.543c-.404.409-.95.639-1.521.639H4.149c-1.188 0-2.152-.977-2.152-2.182V7.32h2.828v2.95c0 .302.24.546.537.546a.542.542 0 00.538-.545V7.32h6.121v2.95c0 .302.242.546.538.546a.541.541 0 00.538-.545V7.32h2.827z" fill="#fff"/></svg>