<svg width="17" height="17" fill="none" xmlns="http://www.w3.org/2000/svg"><path fill-rule="evenodd" clip-rule="evenodd" d="M7.337 0c1.961 0 3.805.732 5.19 2.06 2.686 2.574 2.852 6.663.5 9.424l3.448 3.305a.69.69 0 010 1.006.756.756 0 01-.525.208c-.19 0-.38-.07-.524-.208l-3.449-3.306a7.482 7.482 0 01-4.64 1.583c-1.96 0-3.804-.732-5.19-2.06-2.863-2.744-2.863-7.208 0-9.951C3.533.732 5.377 0 7.337 0zm-4.14 11.006a5.947 5.947 0 004.14 1.644 5.95 5.95 0 004.142-1.644 5.457 5.457 0 000-7.94 5.95 5.95 0 00-4.142-1.643 5.95 5.95 0 00-4.14 1.644 5.457 5.457 0 000 7.939z" fill="#fff"/></svg>