<svg width="8" height="12" fill="none" xmlns="http://www.w3.org/2000/svg"><path fill-rule="evenodd" clip-rule="evenodd" d="M3.978.12A.054.054 0 014 .116h.016c.01 0 .02.002.028.005C6.226.144 8 1.802 8 3.859c0 .67-.195 1.3-.524 1.843v.004a.271.271 0 01-.012.024l-.003.003H7.46v.005h-.004l-.004.013-3.31 5.419a.142.142 0 01-.243 0L.55 5.75l-.003-.002-.002-.001a.164.164 0 01-.012-.02.113.113 0 01-.004-.013V5.71A3.543 3.543 0 010 3.86C0 1.801 1.774.143 3.956.12c.007 0 .014 0 .022-.002zm2.191 3.889A2.17 2.17 0 004 1.839a2.17 2.17 0 00-2.17 2.17A2.17 2.17 0 004 6.178a2.17 2.17 0 002.17-2.17z" fill="#000"/></svg>